<?xml version="1.0" encoding="utf-8"?>
<!-- Generator: Adobe Illustrator 22.1.0, SVG Export Plug-In . SVG Version: 6.00 Build 0)  -->
<svg version="1.1" id="Layer_1" xmlns="http://www.w3.org/2000/svg" xmlns:xlink="http://www.w3.org/1999/xlink" x="0px" y="0px"
	 viewBox="0 0 45 45" style="enable-background:new 0 0 45 45;" xml:space="preserve">
<style type="text/css">
	.st0{fill:#FF3333;}
</style>
<g>
	<g>
		<path class="st0" d="M20,29.3c-0.5,0-1-0.2-1.4-0.6l-8-7.9c-0.8-0.8-0.8-2.1,0-2.9c0.8-0.8,2.1-0.8,2.9,0l6.6,6.5L41.5,3.3
			c0.8-0.8,2.1-0.8,2.9,0s0.8,2.1,0,2.9l-23,22.5C21,29.1,20.5,29.3,20,29.3z"/>
	</g>
	<g>
		<path class="st0" d="M19.7,42.3C8.8,42.3,0,33.6,0,23S8.8,3.7,19.7,3.7c2.6,0,5.2,0.5,7.6,1.5c1,0.4,1.5,1.6,1.1,2.6
			S26.8,9.4,25.7,9c-1.9-0.8-4-1.2-6.1-1.2C11.1,7.8,4.1,14.6,4.1,23s7,15.2,15.6,15.2S35.3,31.4,35.3,23c0-1.1,0.9-2,2-2
			c1.1,0,2,0.9,2,2C39.3,33.6,30.5,42.3,19.7,42.3z"/>
	</g>
</g>
</svg>
